mtllib models/block/cube.mtl
v 0.373206 0.326797 0.026794
v 0.500003 -0.019615 0.499997
v 0.153591 0.326792 0.846409
v 0.026794 0.673203 0.373206
v 0.846409 0.673208 0.153591
v 0.973206 0.326797 0.626794
v 0.626794 0.673204 0.973206
v 0.499997 1.019615 0.500003
vn -0.788700 -0.577400 -0.211300
vn 0.788700 0.577400 0.211300
vn 0.577400 -0.577300 -0.577400
vn 0.211300 -0.577400 0.788700
vn -0.577400 0.577300 0.577400
vn -0.211300 0.577400 -0.788700
usemtl lambert7SG
f 1//1 2//1 3//1 4//1
f 5//2 8//2 7//2 6//2
f 1//3 5//3 6//3 2//3
f 2//4 6//4 7//4 3//4
f 3//5 7//5 8//5 4//5
f 5//6 1//6 4//6 8//6
